<svg width="35" height="35" viewBox="0 0 35 35" fill="none" xmlns="http://www.w3.org/2000/svg">
<path d="M30.625 17.5C30.6253 20.9506 29.2667 24.2626 26.8433 26.719C24.4199 29.1754 21.1267 30.5786 17.6764 30.625H17.5C14.148 30.6334 10.9215 29.3506 8.49023 27.043C8.38583 26.9442 8.3019 26.8259 8.24323 26.6947C8.18457 26.5635 8.15231 26.4221 8.14831 26.2784C8.14431 26.1348 8.16865 25.9917 8.21993 25.8575C8.2712 25.7232 8.34842 25.6004 8.44717 25.496C8.54592 25.3916 8.66426 25.3077 8.79544 25.249C8.92663 25.1903 9.06808 25.1581 9.21173 25.1541C9.35538 25.1501 9.49842 25.1744 9.63266 25.2257C9.76691 25.277 9.88974 25.3542 9.99414 25.4529C11.5579 26.9277 13.5216 27.909 15.6398 28.2743C17.7581 28.6395 19.937 28.3725 21.9044 27.5066C23.8718 26.6407 25.5404 25.2143 26.7018 23.4055C27.8632 21.5968 28.4659 19.486 28.4347 17.3367C28.4034 15.1874 27.7395 13.095 26.526 11.3208C25.3124 9.54665 23.603 8.16939 21.6113 7.36109C19.6195 6.55278 17.4338 6.34928 15.3271 6.77599C13.2203 7.20271 11.286 8.24072 9.76582 9.76036C9.75465 9.77244 9.74278 9.78386 9.73027 9.79454L6.09629 13.125H9.84375C10.1338 13.125 10.412 13.2402 10.6171 13.4454C10.8223 13.6505 10.9375 13.9287 10.9375 14.2188C10.9375 14.5088 10.8223 14.787 10.6171 14.9922C10.412 15.1973 10.1338 15.3125 9.84375 15.3125H3.28125C2.99117 15.3125 2.71297 15.1973 2.50785 14.9922C2.30273 14.787 2.1875 14.5088 2.1875 14.2188V7.65626C2.1875 7.36618 2.30273 7.08798 2.50785 6.88286C2.71297 6.67775 2.99117 6.56251 3.28125 6.56251C3.57133 6.56251 3.84953 6.67775 4.05465 6.88286C4.25977 7.08798 4.375 7.36618 4.375 7.65626V11.7305L8.2373 8.20314C10.0748 6.3728 12.4133 5.12788 14.9578 4.62552C17.5022 4.12317 20.1384 4.3859 22.5336 5.38056C24.9288 6.37522 26.9757 8.05721 28.4158 10.2142C29.8559 12.3712 30.6246 14.9065 30.625 17.5Z" fill="white"/>
</svg>
