<svg width="25" height="27" viewBox="0 0 25 27" fill="none" xmlns="http://www.w3.org/2000/svg">
<path d="M24.615 0.21119C24.4952 0.117852 24.3557 0.0530215 24.2072 0.021617C24.0586 -0.00978748 23.9048 -0.00694139 23.7575 0.0299395L7.75751 4.02994C7.54117 4.08402 7.34911 4.20885 7.21186 4.3846C7.07461 4.56036 7.00004 4.77694 7.00001 4.99994V18.7599C6.1658 18.2026 5.16925 17.9399 4.16869 18.0138C3.16813 18.0877 2.22095 18.4938 1.47764 19.1676C0.734328 19.8415 0.237518 20.7444 0.0661422 21.7329C-0.105233 22.7215 0.0586556 23.7389 0.53177 24.6236C1.00489 25.5084 1.76009 26.2096 2.6774 26.616C3.5947 27.0223 4.6215 27.1105 5.59464 26.8664C6.56779 26.6224 7.43147 26.0601 8.04846 25.269C8.66546 24.4779 9.00038 23.5032 9.00001 22.4999V5.78119L23 2.28119V14.7599C22.1658 14.2026 21.1692 13.9399 20.1687 14.0138C19.1681 14.0877 18.221 14.4938 17.4776 15.1676C16.7343 15.8415 16.2375 16.7444 16.0661 17.7329C15.8948 18.7215 16.0587 19.7389 16.5318 20.6236C17.0049 21.5084 17.7601 22.2096 18.6774 22.616C19.5947 23.0223 20.6215 23.1105 21.5946 22.8664C22.5678 22.6224 23.4315 22.0601 24.0485 21.269C24.6655 20.4779 25.0004 19.5032 25 18.4999V0.99994C25 0.847846 24.9654 0.697749 24.8987 0.561069C24.8319 0.424388 24.7349 0.304727 24.615 0.21119ZM4.50001 24.9999C4.00555 24.9999 3.5222 24.8533 3.11108 24.5786C2.69996 24.3039 2.37953 23.9135 2.19031 23.4566C2.00109 22.9998 1.95158 22.4972 2.04804 22.0122C2.14451 21.5273 2.38261 21.0818 2.73224 20.7322C3.08187 20.3825 3.52733 20.1444 4.01228 20.048C4.49723 19.9515 4.9999 20.001 5.45671 20.1902C5.91353 20.3795 6.30398 20.6999 6.57868 21.111C6.85338 21.5221 7.00001 22.0055 7.00001 22.4999C7.00001 23.163 6.73661 23.7989 6.26777 24.2677C5.79893 24.7365 5.16305 24.9999 4.50001 24.9999ZM20.5 20.9999C20.0056 20.9999 19.5222 20.8533 19.1111 20.5786C18.7 20.3039 18.3795 19.9135 18.1903 19.4566C18.0011 18.9998 17.9516 18.4972 18.048 18.0122C18.1445 17.5273 18.3826 17.0818 18.7322 16.7322C19.0819 16.3825 19.5273 16.1444 20.0123 16.048C20.4972 15.9515 20.9999 16.001 21.4567 16.1902C21.9135 16.3795 22.304 16.6999 22.5787 17.111C22.8534 17.5221 23 18.0055 23 18.4999C23 19.163 22.7366 19.7989 22.2678 20.2677C21.7989 20.7365 21.163 20.9999 20.5 20.9999Z" fill="#1ED760"/>
</svg>
