<svg width="810" height="88" viewBox="0 0 810 88" fill="none" xmlns="http://www.w3.org/2000/svg">
<path d="M777.856 20.103L792.302 42.7948L806.748 20.103H809.177L793.516 44.6485L809.177 69.1939H806.748L792.302 46.5021L777.856 69.1939H775.427L791.088 44.6485L775.427 20.103H777.856Z" fill="white"/>
<path d="M755.348 69.1939V20.103H762.891V69.1939H755.348ZM759.183 11.9212C757.713 11.9212 756.445 11.4205 755.38 10.419C754.336 9.41763 753.814 8.21379 753.814 6.80754C753.814 5.40129 754.336 4.19746 755.38 3.19604C756.445 2.19462 757.713 1.69391 759.183 1.69391C760.653 1.69391 761.91 2.19462 762.955 3.19604C764.02 4.19746 764.553 5.40129 764.553 6.80754C764.553 8.21379 764.02 9.41763 762.955 10.419C761.91 11.4205 760.653 11.9212 759.183 11.9212Z" fill="white"/>
<path d="M668.28 69.1939V20.103H685.028V29.4354H685.539C686.562 26.3672 688.309 23.9382 690.78 22.1485C693.252 20.3587 696.192 19.4638 699.601 19.4638C703.053 19.4638 706.025 20.38 708.518 22.2124C711.011 24.0235 712.513 26.4311 713.025 29.4354H713.536C714.367 26.4311 716.135 24.0235 718.841 22.2124C721.547 20.38 724.722 19.4638 728.366 19.4638C733.074 19.4638 736.888 20.9766 739.807 24.0022C742.748 27.0277 744.218 31.0547 744.218 36.0831V69.1939H726.576V40.5576C726.576 38.4056 726.032 36.7223 724.946 35.5078C723.859 34.272 722.4 33.6541 720.567 33.6541C718.756 33.6541 717.318 34.272 716.253 35.5078C715.209 36.7223 714.687 38.4056 714.687 40.5576V69.1939H697.812V40.5576C697.812 38.4056 697.268 36.7223 696.182 35.5078C695.095 34.272 693.635 33.6541 691.803 33.6541C690.589 33.6541 689.545 33.9311 688.671 34.4851C687.797 35.0391 687.116 35.8381 686.625 36.8821C686.157 37.9049 685.922 39.13 685.922 40.5576V69.1939H668.28Z" fill="white"/>
<path d="M639.005 70.2166C634.573 70.2166 630.716 69.1193 627.435 66.9247C624.154 64.7301 621.618 61.7259 619.829 57.912C618.039 54.098 617.144 49.7514 617.144 44.8722C617.144 39.9716 618.039 35.6037 619.829 31.7685C621.64 27.9333 624.122 24.9077 627.275 22.6918C630.429 20.4759 634.03 19.3679 638.078 19.3679C640.827 19.3679 643.426 19.9219 645.876 21.0299C648.348 22.1165 650.521 23.6932 652.396 25.76C654.292 27.8267 655.773 30.3196 656.839 33.2387C657.925 36.1577 658.469 39.4389 658.469 43.0824V45.5114H619.605V41.9638H654.569C654.569 38.4056 653.845 35.1989 652.396 32.3438C650.947 29.4887 648.976 27.2195 646.483 25.5362C643.991 23.853 641.189 23.0114 638.078 23.0114C634.818 23.0114 631.91 23.9276 629.353 25.76C626.817 27.571 624.804 30.0213 623.312 33.1108C621.842 36.2003 621.075 39.652 621.011 43.4659V45.0639C621.011 49.1549 621.725 52.8303 623.153 56.0902C624.601 59.3289 626.668 61.8963 629.353 63.7926C632.037 65.6676 635.255 66.6051 639.005 66.6051C641.689 66.6051 643.98 66.1577 645.876 65.2628C647.794 64.3466 649.36 63.2387 650.574 61.9389C651.789 60.6392 652.705 59.3821 653.323 58.1676L656.871 59.6059C656.125 61.2465 654.964 62.8871 653.387 64.5277C651.832 66.147 649.85 67.5 647.442 68.5867C645.056 69.6733 642.243 70.2166 639.005 70.2166Z" fill="white"/>
<path d="M559.695 69.1939V3.73935H584.241C589.269 3.73935 593.488 4.61293 596.897 6.36009C600.328 8.10725 602.916 10.5575 604.664 13.7109C606.432 16.843 607.316 20.4972 607.316 24.6733C607.316 28.8707 606.421 32.5142 604.632 35.6037C602.863 38.6719 600.253 41.0476 596.801 42.7308C593.35 44.3928 589.11 45.2237 584.081 45.2237H566.599V35.38H582.483C585.423 35.38 587.831 34.9751 589.706 34.1655C591.581 33.3345 592.966 32.1307 593.861 30.554C594.777 28.956 595.235 26.9957 595.235 24.6733C595.235 22.3509 594.777 20.3693 593.861 18.7287C592.945 17.0668 591.549 15.8097 589.674 14.9574C587.799 14.0838 585.381 13.647 582.419 13.647H571.553V69.1939H559.695ZM593.509 39.5348L609.713 69.1939H596.482L580.565 39.5348H593.509Z" fill="white"/>
<path d="M506.426 70.1527C501.376 70.1527 497.029 69.13 493.386 67.0845C489.764 65.0178 486.973 62.0987 485.012 58.3274C483.052 54.5348 482.072 50.0497 482.072 44.8722C482.072 39.8225 483.052 35.3907 485.012 31.5767C486.973 27.7628 489.732 24.7905 493.29 22.6598C496.87 20.5291 501.067 19.4638 505.882 19.4638C509.121 19.4638 512.136 19.9858 514.927 21.0299C517.74 22.0526 520.19 23.5973 522.278 25.6641C524.387 27.7309 526.028 30.3303 527.2 33.4624C528.372 36.5732 528.958 40.2166 528.958 44.3928V48.1321H487.505V39.6946H516.142C516.142 37.7344 515.716 35.9979 514.863 34.4851C514.011 32.9723 512.828 31.7898 511.316 30.9375C509.824 30.0639 508.088 29.6272 506.106 29.6272C504.039 29.6272 502.207 30.1066 500.609 31.0654C499.032 32.0029 497.796 33.2706 496.902 34.8686C496.007 36.4453 495.549 38.2032 495.527 40.1421V48.1641C495.527 50.5931 495.975 52.6918 496.87 54.4603C497.786 56.2287 499.075 57.5924 500.737 58.5512C502.399 59.51 504.37 59.9894 506.649 59.9894C508.162 59.9894 509.547 59.7763 510.804 59.3502C512.061 58.924 513.137 58.2848 514.032 57.4326C514.927 56.5803 515.609 55.5363 516.078 54.3005L528.67 55.1314C528.031 58.157 526.72 60.799 524.739 63.0576C522.779 65.2948 520.243 67.0419 517.132 68.299C514.043 69.5348 510.474 70.1527 506.426 70.1527Z" fill="#1ED760"/>
<path d="M444.926 69.9929C441.198 69.9929 437.82 69.0341 434.795 67.1165C431.791 65.1776 429.404 62.3331 427.636 58.5831C425.889 54.8118 425.015 50.1882 425.015 44.7124C425.015 39.0874 425.921 34.4105 427.732 30.6818C429.543 26.9318 431.95 24.13 434.955 22.2763C437.98 20.4013 441.293 19.4638 444.894 19.4638C447.643 19.4638 449.933 19.9325 451.766 20.87C453.619 21.7862 455.111 22.9368 456.24 24.3217C457.391 25.6854 458.264 27.0277 458.861 28.3487H459.276V3.73935H472.86V69.1939H459.436V61.3317H458.861C458.222 62.6953 457.316 64.0483 456.144 65.3906C454.994 66.7117 453.492 67.809 451.638 68.6825C449.806 69.5561 447.568 69.9929 444.926 69.9929ZM449.241 59.1584C451.436 59.1584 453.289 58.5618 454.802 57.3686C456.336 56.1541 457.508 54.4602 458.318 52.2869C459.149 50.1136 459.564 47.5675 459.564 44.6484C459.564 41.7294 459.159 39.1939 458.35 37.0419C457.54 34.8899 456.368 33.228 454.834 32.0561C453.3 30.8842 451.436 30.2983 449.241 30.2983C447.004 30.2983 445.118 30.9055 443.584 32.12C442.05 33.3345 440.889 35.0178 440.1 37.1698C439.312 39.3217 438.918 41.8146 438.918 44.6484C438.918 47.5036 439.312 50.0284 440.1 52.223C440.91 54.3963 442.071 56.1009 443.584 57.3367C445.118 58.5511 447.004 59.1584 449.241 59.1584Z" fill="#1ED760"/>
<path d="M402.315 69.1939V20.103H415.93V69.1939H402.315ZM409.155 13.7749C407.131 13.7749 405.394 13.1037 403.945 11.7614C402.518 10.3977 401.804 8.76776 401.804 6.87145C401.804 4.99645 402.518 3.38779 403.945 2.04546C405.394 0.681819 407.131 0 409.155 0C411.179 0 412.905 0.681819 414.332 2.04546C415.781 3.38779 416.506 4.99645 416.506 6.87145C416.506 8.76776 415.781 10.3977 414.332 11.7614C412.905 13.1037 411.179 13.7749 409.155 13.7749Z" fill="#1ED760"/>
<path d="M392.623 34.1016L380.159 34.8686C379.946 33.8033 379.488 32.8445 378.785 31.9922C378.081 31.1186 377.155 30.4262 376.004 29.9148C374.875 29.3821 373.522 29.1158 371.945 29.1158C369.836 29.1158 368.057 29.5632 366.608 30.4581C365.159 31.3317 364.434 32.5036 364.434 33.9737C364.434 35.1456 364.903 36.1364 365.841 36.9461C366.778 37.7557 368.387 38.4056 370.667 38.8956L379.552 40.6854C384.324 41.6655 387.883 43.2422 390.226 45.4155C392.57 47.5888 393.742 50.4439 393.742 53.9809C393.742 57.1982 392.794 60.0213 390.898 62.4503C389.023 64.8793 386.444 66.7756 383.163 68.1392C379.903 69.4816 376.143 70.1527 371.881 70.1527C365.383 70.1527 360.205 68.7997 356.349 66.0938C352.513 63.3665 350.265 59.6591 349.605 54.9716L362.996 54.2685C363.401 56.25 364.381 57.7628 365.937 58.8068C367.492 59.8296 369.484 60.3409 371.913 60.3409C374.3 60.3409 376.217 59.8828 377.666 58.9666C379.136 58.0291 379.882 56.8253 379.903 55.3551C379.882 54.1193 379.36 53.1073 378.337 52.3189C377.314 51.5093 375.738 50.8914 373.607 50.4652L365.106 48.7713C360.312 47.8125 356.743 46.1506 354.399 43.7855C352.077 41.4205 350.915 38.4056 350.915 34.7408C350.915 31.5874 351.768 28.8708 353.472 26.5909C355.198 24.3111 357.616 22.5533 360.727 21.3175C363.859 20.0817 367.524 19.4638 371.721 19.4638C377.922 19.4638 382.801 20.7742 386.359 23.3949C389.939 26.0157 392.027 29.5845 392.623 34.1016Z" fill="#1ED760"/>
<path d="M294.825 87.603V20.103H308.248V28.3487H308.856C309.452 27.0277 310.315 25.6854 311.444 24.3218C312.595 22.9368 314.086 21.7862 315.919 20.8701C317.773 19.9326 320.074 19.4638 322.822 19.4638C326.402 19.4638 329.704 20.4013 332.73 22.2763C335.755 24.13 338.174 26.9318 339.985 30.6818C341.796 34.4105 342.702 39.0874 342.702 44.7124C342.702 50.1882 341.817 54.8118 340.049 58.5831C338.302 62.3331 335.915 65.1776 332.89 67.1165C329.885 69.0341 326.519 69.9929 322.79 69.9929C320.148 69.9929 317.9 69.5561 316.047 68.6826C314.214 67.809 312.712 66.7117 311.54 65.3907C310.368 64.0483 309.474 62.6953 308.856 61.3317H308.44V87.603H294.825ZM308.152 44.6485C308.152 47.5675 308.557 50.1137 309.367 52.287C310.177 54.4603 311.349 56.1541 312.883 57.3686C314.417 58.5618 316.281 59.1584 318.476 59.1584C320.692 59.1584 322.567 58.5512 324.101 57.3367C325.635 56.1009 326.796 54.3963 327.584 52.223C328.394 50.0284 328.799 47.5036 328.799 44.6485C328.799 41.8147 328.405 39.3218 327.616 37.1698C326.828 35.0178 325.667 33.3345 324.133 32.1201C322.599 30.9056 320.713 30.2983 318.476 30.2983C316.26 30.2983 314.385 30.8843 312.851 32.0561C311.338 33.228 310.177 34.8899 309.367 37.0419C308.557 39.1939 308.152 41.7294 308.152 44.6485Z" fill="#1ED760"/>
<path d="M270.304 69.1939V20.103H283.919V69.1939H270.304ZM277.143 13.7749C275.119 13.7749 273.382 13.1037 271.934 11.7614C270.506 10.3977 269.792 8.76776 269.792 6.87145C269.792 4.99645 270.506 3.38779 271.934 2.04546C273.382 0.681819 275.119 0 277.143 0C279.167 0 280.893 0.681819 282.321 2.04546C283.77 3.38779 284.494 4.99645 284.494 6.87145C284.494 8.76776 283.77 10.3977 282.321 11.7614C280.893 13.1037 279.167 13.7749 277.143 13.7749Z" fill="#1ED760"/>
<path d="M259.397 3.73935V69.1939H245.782V3.73935H259.397Z" fill="#1ED760"/>
<path d="M193.391 69.1939V3.73935H236.729V15.1492H207.23V30.7457H233.853V42.1555H207.23V69.1939H193.391Z" fill="#1ED760"/>
<path d="M140.889 70.1527C135.839 70.1527 131.492 69.13 127.849 67.0845C124.227 65.0178 121.435 62.0987 119.475 58.3274C117.515 54.5348 116.535 50.0497 116.535 44.8722C116.535 39.8225 117.515 35.3907 119.475 31.5767C121.435 27.7628 124.195 24.7905 127.753 22.6598C131.332 20.5291 135.53 19.4638 140.345 19.4638C143.584 19.4638 146.599 19.9858 149.39 21.0299C152.203 22.0526 154.653 23.5973 156.741 25.6641C158.85 27.7309 160.491 30.3303 161.663 33.4624C162.835 36.5732 163.421 40.2166 163.421 44.3928V48.1321H121.968V39.6946H150.605C150.605 37.7344 150.178 35.9979 149.326 34.4851C148.474 32.9723 147.291 31.7898 145.779 30.9375C144.287 30.0639 142.551 29.6272 140.569 29.6272C138.502 29.6272 136.67 30.1066 135.072 31.0654C133.495 32.0029 132.259 33.2706 131.364 34.8686C130.47 36.4453 130.011 38.2032 129.99 40.1421V48.1641C129.99 50.5931 130.438 52.6918 131.332 54.4603C132.249 56.2287 133.538 57.5924 135.2 58.5512C136.862 59.51 138.832 59.9894 141.112 59.9894C142.625 59.9894 144.01 59.7763 145.267 59.3502C146.524 58.924 147.6 58.2848 148.495 57.4326C149.39 56.5803 150.072 55.5363 150.541 54.3005L163.133 55.1314C162.494 58.157 161.183 60.799 159.202 63.0576C157.242 65.2948 154.706 67.0419 151.595 68.299C148.506 69.5348 144.937 70.1527 140.889 70.1527Z" fill="white"/>
<path d="M75.9694 40.8132V69.1939H62.3544V3.73935H75.5859V28.7642H76.1612C77.2691 25.8665 79.0589 23.5973 81.5305 21.9567C84.0021 20.2947 87.1022 19.4638 90.8309 19.4638C94.24 19.4638 97.2123 20.2095 99.7478 21.701C102.305 23.1712 104.286 25.2912 105.692 28.0611C107.12 30.8097 107.823 34.1016 107.802 37.9368V69.1939H94.1868V40.3658C94.2081 37.3402 93.441 34.9858 91.8856 33.3026C90.3515 31.6193 88.1995 30.7777 85.4297 30.7777C83.576 30.7777 81.9353 31.1719 80.5078 31.9602C79.1015 32.7486 77.9936 33.8992 77.1839 35.4119C76.3956 36.9034 75.9907 38.7038 75.9694 40.8132Z" fill="white"/>
<path d="M0 15.1492V3.73935H53.7571V15.1492H33.718V69.1939H20.0391V15.1492H0Z" fill="white"/>
</svg>
