<svg width="810" height="88" viewBox="0 0 810 88" fill="none" xmlns="http://www.w3.org/2000/svg">
<path d="M777.856 20.103L792.302 42.7948L806.748 20.103H809.177L793.516 44.6485L809.177 69.1939H806.748L792.302 46.5022L777.856 69.1939H775.427L791.088 44.6485L775.427 20.103H777.856Z" fill="black"/>
<path d="M755.348 69.1938V20.1029H762.891V69.1938H755.348ZM759.183 11.9211C757.713 11.9211 756.445 11.4204 755.38 10.419C754.336 9.41757 753.814 8.21373 753.814 6.80748C753.814 5.40123 754.336 4.1974 755.38 3.19598C756.445 2.19456 757.713 1.69385 759.183 1.69385C760.653 1.69385 761.91 2.19456 762.955 3.19598C764.02 4.1974 764.553 5.40123 764.553 6.80748C764.553 8.21373 764.02 9.41757 762.955 10.419C761.91 11.4204 760.653 11.9211 759.183 11.9211Z" fill="black"/>
<path d="M668.28 69.194V20.1031H685.028V29.4355H685.539C686.562 26.3673 688.309 23.9383 690.78 22.1485C693.252 20.3588 696.192 19.4639 699.601 19.4639C703.053 19.4639 706.025 20.3801 708.518 22.2124C711.011 24.0235 712.513 26.4312 713.025 29.4355H713.536C714.367 26.4312 716.135 24.0235 718.841 22.2124C721.547 20.3801 724.722 19.4639 728.366 19.4639C733.074 19.4639 736.888 20.9767 739.807 24.0022C742.748 27.0278 744.218 31.0548 744.218 36.0832V69.194H726.576V40.5576C726.576 38.4056 726.032 36.7224 724.946 35.5079C723.859 34.2721 722.4 33.6542 720.567 33.6542C718.756 33.6542 717.318 34.2721 716.253 35.5079C715.209 36.7224 714.687 38.4056 714.687 40.5576V69.194H697.812V40.5576C697.812 38.4056 697.268 36.7224 696.182 35.5079C695.095 34.2721 693.635 33.6542 691.803 33.6542C690.589 33.6542 689.545 33.9312 688.671 34.4852C687.797 35.0392 687.116 35.8382 686.625 36.8822C686.157 37.9049 685.922 39.1301 685.922 40.5576V69.194H668.28Z" fill="black"/>
<path d="M639.005 70.2166C634.573 70.2166 630.716 69.1193 627.435 66.9247C624.154 64.7301 621.618 61.7259 619.829 57.912C618.039 54.098 617.144 49.7514 617.144 44.8722C617.144 39.9716 618.039 35.6037 619.829 31.7685C621.64 27.9333 624.122 24.9077 627.275 22.6918C630.429 20.4759 634.03 19.3679 638.078 19.3679C640.827 19.3679 643.426 19.9219 645.876 21.0299C648.348 22.1165 650.521 23.6932 652.396 25.76C654.292 27.8267 655.773 30.3196 656.839 33.2387C657.925 36.1577 658.469 39.4389 658.469 43.0824V45.5114H619.605V41.9638H654.569C654.569 38.4056 653.845 35.1989 652.396 32.3438C650.947 29.4887 648.976 27.2195 646.483 25.5362C643.991 23.853 641.189 23.0114 638.078 23.0114C634.818 23.0114 631.91 23.9276 629.353 25.76C626.817 27.571 624.804 30.0213 623.312 33.1108C621.842 36.2003 621.075 39.652 621.011 43.4659V45.0639C621.011 49.1549 621.725 52.8303 623.153 56.0902C624.601 59.3289 626.668 61.8963 629.353 63.7926C632.037 65.6676 635.255 66.6051 639.005 66.6051C641.689 66.6051 643.98 66.1577 645.876 65.2628C647.794 64.3466 649.36 63.2387 650.574 61.9389C651.789 60.6392 652.705 59.3821 653.323 58.1676L656.871 59.6059C656.125 61.2465 654.964 62.8871 653.387 64.5277C651.832 66.147 649.85 67.5 647.442 68.5867C645.056 69.6733 642.243 70.2166 639.005 70.2166Z" fill="black"/>
<path d="M559.695 69.1938V3.73926H584.241C589.269 3.73926 593.488 4.61284 596.897 6.36C600.328 8.10716 602.916 10.5574 604.664 13.7108C606.432 16.843 607.316 20.4971 607.316 24.6732C607.316 28.8706 606.421 32.5141 604.632 35.6036C602.863 38.6718 600.253 41.0475 596.801 42.7307C593.35 44.3927 589.11 45.2236 584.081 45.2236H566.599V35.3799H582.483C585.423 35.3799 587.831 34.9751 589.706 34.1654C591.581 33.3344 592.966 32.1306 593.861 30.5539C594.777 28.9559 595.235 26.9956 595.235 24.6732C595.235 22.3508 594.777 20.3692 593.861 18.7286C592.945 17.0667 591.549 15.8096 589.674 14.9573C587.799 14.0837 585.381 13.6469 582.419 13.6469H571.553V69.1938H559.695ZM593.509 39.5347L609.713 69.1938H596.482L580.565 39.5347H593.509Z" fill="black"/>
<path d="M506.426 70.1528C501.376 70.1528 497.029 69.1301 493.386 67.0846C489.764 65.0178 486.973 62.0988 485.012 58.3275C483.052 54.5349 482.072 50.0498 482.072 44.8722C482.072 39.8225 483.052 35.3907 485.012 31.5768C486.973 27.7629 489.732 24.7906 493.29 22.6599C496.87 20.5292 501.067 19.4639 505.882 19.4639C509.121 19.4639 512.136 19.9859 514.927 21.0299C517.74 22.0526 520.19 23.5974 522.278 25.6642C524.387 27.7309 526.028 30.3303 527.2 33.4624C528.372 36.5732 528.958 40.2167 528.958 44.3928V48.1322H487.505V39.6947H516.142C516.142 37.7345 515.716 35.998 514.863 34.4852C514.011 32.9724 512.828 31.7899 511.316 30.9376C509.824 30.064 508.088 29.6272 506.106 29.6272C504.039 29.6272 502.207 30.1066 500.609 31.0654C499.032 32.0029 497.796 33.2707 496.902 34.8687C496.007 36.4454 495.549 38.2032 495.527 40.1421V48.1642C495.527 50.5931 495.975 52.6918 496.87 54.4603C497.786 56.2288 499.075 57.5924 500.737 58.5512C502.399 59.51 504.37 59.9894 506.649 59.9894C508.162 59.9894 509.547 59.7764 510.804 59.3502C512.061 58.9241 513.137 58.2849 514.032 57.4326C514.927 56.5803 515.609 55.5363 516.078 54.3005L528.67 55.1315C528.031 58.157 526.72 60.7991 524.739 63.0576C522.779 65.2948 520.243 67.042 517.132 68.2991C514.043 69.5349 510.474 70.1528 506.426 70.1528Z" fill="#1ED760"/>
<path d="M444.926 69.9928C441.198 69.9928 437.82 69.034 434.795 67.1164C431.791 65.1775 429.404 62.333 427.636 58.583C425.889 54.8117 425.015 50.1881 425.015 44.7123C425.015 39.0873 425.921 34.4104 427.732 30.6817C429.543 26.9317 431.95 24.1299 434.955 22.2762C437.98 20.4012 441.293 19.4637 444.894 19.4637C447.643 19.4637 449.933 19.9324 451.766 20.8699C453.619 21.7861 455.111 22.9367 456.24 24.3216C457.391 25.6853 458.264 27.0276 458.861 28.3486H459.276V3.73926H472.86V69.1938H459.436V61.3316H458.861C458.222 62.6952 457.316 64.0482 456.144 65.3905C454.994 66.7116 453.492 67.8089 451.638 68.6824C449.806 69.556 447.568 69.9928 444.926 69.9928ZM449.241 59.1583C451.436 59.1583 453.289 58.5617 454.802 57.3685C456.336 56.154 457.508 54.4601 458.318 52.2868C459.149 50.1136 459.564 47.5674 459.564 44.6483C459.564 41.7293 459.159 39.1938 458.35 37.0418C457.54 34.8898 456.368 33.2279 454.834 32.056C453.3 30.8841 451.436 30.2982 449.241 30.2982C447.004 30.2982 445.118 30.9055 443.584 32.1199C442.05 33.3344 440.889 35.0177 440.1 37.1697C439.312 39.3216 438.918 41.8145 438.918 44.6483C438.918 47.5035 439.312 50.0283 440.1 52.2229C440.91 54.3962 442.071 56.1008 443.584 57.3366C445.118 58.551 447.004 59.1583 449.241 59.1583Z" fill="#1ED760"/>
<path d="M402.315 69.1939V20.103H415.93V69.1939H402.315ZM409.155 13.7749C407.131 13.7749 405.394 13.1037 403.945 11.7614C402.518 10.3977 401.804 8.76776 401.804 6.87145C401.804 4.99645 402.518 3.38779 403.945 2.04546C405.394 0.681819 407.131 0 409.155 0C411.179 0 412.905 0.681819 414.332 2.04546C415.781 3.38779 416.506 4.99645 416.506 6.87145C416.506 8.76776 415.781 10.3977 414.332 11.7614C412.905 13.1037 411.179 13.7749 409.155 13.7749Z" fill="#1ED760"/>
<path d="M392.623 34.1017L380.159 34.8687C379.946 33.8034 379.488 32.8445 378.785 31.9923C378.081 31.1187 377.155 30.4262 376.004 29.9149C374.875 29.3822 373.522 29.1159 371.945 29.1159C369.836 29.1159 368.057 29.5633 366.608 30.4582C365.159 31.3318 364.434 32.5036 364.434 33.9738C364.434 35.1457 364.903 36.1365 365.841 36.9461C366.778 37.7558 368.387 38.4056 370.667 38.8957L379.552 40.6855C384.324 41.6656 387.883 43.2423 390.226 45.4156C392.57 47.5889 393.742 50.444 393.742 53.9809C393.742 57.1982 392.794 60.0214 390.898 62.4504C389.023 64.8794 386.444 66.7757 383.163 68.1393C379.903 69.4816 376.143 70.1528 371.881 70.1528C365.383 70.1528 360.205 68.7998 356.349 66.0938C352.513 63.3666 350.265 59.6592 349.605 54.9717L362.996 54.2686C363.401 56.2501 364.381 57.7629 365.937 58.8069C367.492 59.8296 369.484 60.341 371.913 60.341C374.3 60.341 376.217 59.8829 377.666 58.9667C379.136 58.0292 379.882 56.8254 379.903 55.3552C379.882 54.1194 379.36 53.1073 378.337 52.319C377.314 51.5093 375.738 50.8914 373.607 50.4653L365.106 48.7714C360.312 47.8126 356.743 46.1507 354.399 43.7856C352.077 41.4205 350.915 38.4056 350.915 34.7409C350.915 31.5874 351.768 28.8708 353.472 26.591C355.198 24.3112 357.616 22.5534 360.727 21.3176C363.859 20.0818 367.524 19.4639 371.721 19.4639C377.922 19.4639 382.801 20.7742 386.359 23.395C389.939 26.0157 392.027 29.5846 392.623 34.1017Z" fill="#1ED760"/>
<path d="M294.825 87.6031V20.1031H308.248V28.3488H308.856C309.452 27.0278 310.315 25.6855 311.444 24.3218C312.595 22.9369 314.086 21.7863 315.919 20.8701C317.773 19.9326 320.074 19.4639 322.822 19.4639C326.402 19.4639 329.704 20.4014 332.73 22.2764C335.755 24.1301 338.174 26.9319 339.985 30.6819C341.796 34.4106 342.702 39.0874 342.702 44.7124C342.702 50.1883 341.817 54.8119 340.049 58.5832C338.302 62.3332 335.915 65.1776 332.89 67.1166C329.885 69.0342 326.519 69.993 322.79 69.993C320.148 69.993 317.9 69.5562 316.047 68.6826C314.214 67.809 312.712 66.7117 311.54 65.3907C310.368 64.0484 309.474 62.6954 308.856 61.3318H308.44V87.6031H294.825ZM308.152 44.6485C308.152 47.5676 308.557 50.1137 309.367 52.287C310.177 54.4603 311.349 56.1542 312.883 57.3687C314.417 58.5619 316.281 59.1585 318.476 59.1585C320.692 59.1585 322.567 58.5512 324.101 57.3367C325.635 56.1009 326.796 54.3964 327.584 52.2231C328.394 50.0285 328.799 47.5036 328.799 44.6485C328.799 41.8147 328.405 39.3218 327.616 37.1698C326.828 35.0178 325.667 33.3346 324.133 32.1201C322.599 30.9056 320.713 30.2984 318.476 30.2984C316.26 30.2984 314.385 30.8843 312.851 32.0562C311.338 33.2281 310.177 34.89 309.367 37.042C308.557 39.194 308.152 41.7295 308.152 44.6485Z" fill="#1ED760"/>
<path d="M270.304 69.1939V20.103H283.919V69.1939H270.304ZM277.143 13.7749C275.119 13.7749 273.382 13.1037 271.934 11.7614C270.506 10.3977 269.792 8.76776 269.792 6.87145C269.792 4.99645 270.506 3.38779 271.934 2.04546C273.382 0.681819 275.119 0 277.143 0C279.167 0 280.893 0.681819 282.321 2.04546C283.77 3.38779 284.494 4.99645 284.494 6.87145C284.494 8.76776 283.77 10.3977 282.321 11.7614C280.893 13.1037 279.167 13.7749 277.143 13.7749Z" fill="#1ED760"/>
<path d="M259.397 3.73926V69.1938H245.782V3.73926H259.397Z" fill="#1ED760"/>
<path d="M193.391 69.1938V3.73926H236.729V15.1491H207.23V30.7457H233.853V42.1555H207.23V69.1938H193.391Z" fill="#1ED760"/>
<path d="M140.889 70.1528C135.839 70.1528 131.492 69.1301 127.849 67.0846C124.227 65.0178 121.435 62.0988 119.475 58.3275C117.515 54.5349 116.535 50.0498 116.535 44.8722C116.535 39.8225 117.515 35.3907 119.475 31.5768C121.435 27.7629 124.195 24.7906 127.753 22.6599C131.332 20.5292 135.53 19.4639 140.345 19.4639C143.584 19.4639 146.599 19.9859 149.39 21.0299C152.203 22.0526 154.653 23.5974 156.741 25.6642C158.85 27.7309 160.491 30.3303 161.663 33.4624C162.835 36.5732 163.421 40.2167 163.421 44.3928V48.1322H121.968V39.6947H150.605C150.605 37.7345 150.178 35.998 149.326 34.4852C148.474 32.9724 147.291 31.7899 145.779 30.9376C144.287 30.064 142.551 29.6272 140.569 29.6272C138.502 29.6272 136.67 30.1066 135.072 31.0654C133.495 32.0029 132.259 33.2707 131.364 34.8687C130.47 36.4454 130.011 38.2032 129.99 40.1421V48.1642C129.99 50.5931 130.438 52.6918 131.332 54.4603C132.249 56.2288 133.538 57.5924 135.2 58.5512C136.862 59.51 138.832 59.9894 141.112 59.9894C142.625 59.9894 144.01 59.7764 145.267 59.3502C146.524 58.9241 147.6 58.2849 148.495 57.4326C149.39 56.5803 150.072 55.5363 150.541 54.3005L163.133 55.1315C162.494 58.157 161.183 60.7991 159.202 63.0576C157.242 65.2948 154.706 67.042 151.595 68.2991C148.506 69.5349 144.937 70.1528 140.889 70.1528Z" fill="black"/>
<path d="M75.9694 40.8131V69.1938H62.3544V3.73926H75.5859V28.7641H76.1612C77.2691 25.8664 79.0589 23.5972 81.5305 21.9566C84.0021 20.2947 87.1022 19.4637 90.8309 19.4637C94.24 19.4637 97.2123 20.2094 99.7478 21.7009C102.305 23.1711 104.286 25.2911 105.692 28.061C107.12 30.8096 107.823 34.1015 107.802 37.9367V69.1938H94.1868V40.3657C94.2081 37.3401 93.441 34.9857 91.8856 33.3025C90.3515 31.6192 88.1995 30.7776 85.4297 30.7776C83.576 30.7776 81.9353 31.1718 80.5078 31.9601C79.1015 32.7485 77.9936 33.8991 77.1839 35.4118C76.3956 36.9033 75.9907 38.7038 75.9694 40.8131Z" fill="black"/>
<path d="M0 15.1491V3.73926H53.7571V15.1491H33.718V69.1938H20.0391V15.1491H0Z" fill="black"/>
</svg>
