<svg width="1440" height="1024" viewBox="0 0 1440 1024" fill="none" xmlns="http://www.w3.org/2000/svg">
<g clip-path="url(#clip0_48_706)">
<rect width="1440" height="1024" fill="black"/>
<line x1="19.25" y1="1.09278e-08" x2="19.25" y2="1034" stroke="#1ED760" stroke-width="0.5"/>
<line x1="44.25" y1="1.09278e-08" x2="44.25" y2="1034" stroke="#1ED760" stroke-width="0.5"/>
<line x1="69.25" y1="1.09278e-08" x2="69.25" y2="1034" stroke="#1ED760" stroke-width="0.5"/>
<line x1="94.25" y1="1.09278e-08" x2="94.25" y2="1034" stroke="#1ED760" stroke-width="0.5"/>
<line x1="119.25" y1="1.09278e-08" x2="119.25" y2="1034" stroke="#1ED760" stroke-width="0.5"/>
<line x1="144.25" y1="1.09278e-08" x2="144.25" y2="1034" stroke="#1ED760" stroke-width="0.5"/>
<line x1="169.25" y1="1.09278e-08" x2="169.25" y2="1034" stroke="#1ED760" stroke-width="0.5"/>
<line x1="194.25" y1="1.09278e-08" x2="194.25" y2="1034" stroke="#1ED760" stroke-width="0.5"/>
<line x1="219.25" y1="1.09278e-08" x2="219.25" y2="1034" stroke="#1ED760" stroke-width="0.5"/>
<line x1="244.25" y1="1.09278e-08" x2="244.25" y2="1034" stroke="#1ED760" stroke-width="0.5"/>
<line x1="269.25" y1="1.09278e-08" x2="269.25" y2="1034" stroke="#1ED760" stroke-width="0.5"/>
<line x1="294.25" y1="1.09278e-08" x2="294.25" y2="1034" stroke="#1ED760" stroke-width="0.5"/>
<line x1="319.25" y1="1.09278e-08" x2="319.25" y2="1034" stroke="#1ED760" stroke-width="0.5"/>
<line x1="344.25" y1="1.09278e-08" x2="344.25" y2="1034" stroke="#1ED760" stroke-width="0.5"/>
<line x1="369.25" y1="1.09278e-08" x2="369.25" y2="1034" stroke="#1ED760" stroke-width="0.5"/>
<line x1="394.25" y1="1.09278e-08" x2="394.25" y2="1034" stroke="#1ED760" stroke-width="0.5"/>
<line x1="419.25" y1="1.09278e-08" x2="419.25" y2="1034" stroke="#1ED760" stroke-width="0.5"/>
<line x1="444.25" y1="1.09278e-08" x2="444.25" y2="1034" stroke="#1ED760" stroke-width="0.5"/>
<line x1="469.25" y1="1.09278e-08" x2="469.25" y2="1034" stroke="#1ED760" stroke-width="0.5"/>
<line x1="494.25" y1="1.09278e-08" x2="494.25" y2="1034" stroke="#1ED760" stroke-width="0.5"/>
<line x1="519.25" y1="1.09278e-08" x2="519.25" y2="1034" stroke="#1ED760" stroke-width="0.5"/>
<line x1="544.25" y1="1.09278e-08" x2="544.25" y2="1034" stroke="#1ED760" stroke-width="0.5"/>
<line x1="569.25" y1="1.09278e-08" x2="569.25" y2="1034" stroke="#1ED760" stroke-width="0.5"/>
<line x1="594.25" y1="1.09278e-08" x2="594.25" y2="1034" stroke="#1ED760" stroke-width="0.5"/>
<line x1="619.25" y1="1.09278e-08" x2="619.25" y2="1034" stroke="#1ED760" stroke-width="0.5"/>
<line x1="644.25" y1="1.09278e-08" x2="644.25" y2="1034" stroke="#1ED760" stroke-width="0.5"/>
<line x1="669.25" y1="1.09278e-08" x2="669.25" y2="1034" stroke="#1ED760" stroke-width="0.5"/>
<line x1="694.25" y1="1.09278e-08" x2="694.25" y2="1034" stroke="#1ED760" stroke-width="0.5"/>
<line x1="719.25" y1="1.09278e-08" x2="719.25" y2="1034" stroke="#1ED760" stroke-width="0.5"/>
<line x1="744.25" y1="1.09278e-08" x2="744.25" y2="1034" stroke="#1ED760" stroke-width="0.5"/>
<line x1="769.25" y1="1.09278e-08" x2="769.25" y2="1034" stroke="#1ED760" stroke-width="0.5"/>
<line x1="794.25" y1="1.09278e-08" x2="794.25" y2="1034" stroke="#1ED760" stroke-width="0.5"/>
<line x1="819.25" y1="1.09278e-08" x2="819.25" y2="1034" stroke="#1ED760" stroke-width="0.5"/>
<line x1="844.25" y1="1.09278e-08" x2="844.25" y2="1034" stroke="#1ED760" stroke-width="0.5"/>
<line x1="869.25" y1="1.09278e-08" x2="869.25" y2="1034" stroke="#1ED760" stroke-width="0.5"/>
<line x1="894.25" y1="1.09278e-08" x2="894.25" y2="1034" stroke="#1ED760" stroke-width="0.5"/>
<line x1="919.25" y1="1.09278e-08" x2="919.25" y2="1034" stroke="#1ED760" stroke-width="0.5"/>
<line x1="944.25" y1="1.09278e-08" x2="944.25" y2="1034" stroke="#1ED760" stroke-width="0.5"/>
<line x1="969.25" y1="1.09278e-08" x2="969.25" y2="1034" stroke="#1ED760" stroke-width="0.5"/>
<line x1="994.25" y1="1.09278e-08" x2="994.25" y2="1034" stroke="#1ED760" stroke-width="0.5"/>
<line x1="1019.25" y1="1.09278e-08" x2="1019.25" y2="1034" stroke="#1ED760" stroke-width="0.5"/>
<line x1="1044.25" y1="1.09278e-08" x2="1044.25" y2="1034" stroke="#1ED760" stroke-width="0.5"/>
<line x1="1069.25" y1="1.09278e-08" x2="1069.25" y2="1034" stroke="#1ED760" stroke-width="0.5"/>
<line x1="1094.25" y1="1.09278e-08" x2="1094.25" y2="1034" stroke="#1ED760" stroke-width="0.5"/>
<line x1="1119.25" y1="1.09278e-08" x2="1119.25" y2="1034" stroke="#1ED760" stroke-width="0.5"/>
<line x1="1144.25" y1="1.09278e-08" x2="1144.25" y2="1034" stroke="#1ED760" stroke-width="0.5"/>
<line x1="1169.25" y1="1.09278e-08" x2="1169.25" y2="1034" stroke="#1ED760" stroke-width="0.5"/>
<line x1="1194.25" y1="1.09278e-08" x2="1194.25" y2="1034" stroke="#1ED760" stroke-width="0.5"/>
<line x1="1219.25" y1="1.09278e-08" x2="1219.25" y2="1034" stroke="#1ED760" stroke-width="0.5"/>
<line x1="1244.25" y1="1.09278e-08" x2="1244.25" y2="1034" stroke="#1ED760" stroke-width="0.5"/>
<line x1="1269.25" y1="1.09278e-08" x2="1269.25" y2="1034" stroke="#1ED760" stroke-width="0.5"/>
<line x1="1294.25" y1="1.09278e-08" x2="1294.25" y2="1034" stroke="#1ED760" stroke-width="0.5"/>
<line x1="1319.25" y1="1.09278e-08" x2="1319.25" y2="1034" stroke="#1ED760" stroke-width="0.5"/>
<line x1="1344.25" y1="1.09278e-08" x2="1344.25" y2="1034" stroke="#1ED760" stroke-width="0.5"/>
<line x1="1369.25" y1="1.09278e-08" x2="1369.25" y2="1034" stroke="#1ED760" stroke-width="0.5"/>
<line x1="1394.25" y1="1.09278e-08" x2="1394.25" y2="1034" stroke="#1ED760" stroke-width="0.5"/>
<line x1="1419.25" y1="1.09278e-08" x2="1419.25" y2="1034" stroke="#1ED760" stroke-width="0.5"/>
<line x1="-47" y1="1023.75" x2="1487" y2="1023.75" stroke="#1ED760" stroke-width="0.5"/>
<line x1="-47" y1="998.75" x2="1487" y2="998.75" stroke="#1ED760" stroke-width="0.5"/>
<line x1="-47" y1="973.75" x2="1487" y2="973.75" stroke="#1ED760" stroke-width="0.5"/>
<line x1="-47" y1="948.75" x2="1487" y2="948.75" stroke="#1ED760" stroke-width="0.5"/>
<line x1="-47" y1="923.75" x2="1487" y2="923.75" stroke="#1ED760" stroke-width="0.5"/>
<line x1="-47" y1="898.75" x2="1487" y2="898.75" stroke="#1ED760" stroke-width="0.5"/>
<line x1="-47" y1="873.75" x2="1487" y2="873.75" stroke="#1ED760" stroke-width="0.5"/>
<line x1="-47" y1="848.75" x2="1487" y2="848.75" stroke="#1ED760" stroke-width="0.5"/>
<line x1="-47" y1="823.75" x2="1487" y2="823.75" stroke="#1ED760" stroke-width="0.5"/>
<line x1="-47" y1="798.75" x2="1487" y2="798.75" stroke="#1ED760" stroke-width="0.5"/>
<line x1="-47" y1="773.75" x2="1487" y2="773.75" stroke="#1ED760" stroke-width="0.5"/>
<line x1="-47" y1="748.75" x2="1487" y2="748.75" stroke="#1ED760" stroke-width="0.5"/>
<line x1="-47" y1="723.75" x2="1487" y2="723.75" stroke="#1ED760" stroke-width="0.5"/>
<line x1="-47" y1="698.75" x2="1487" y2="698.75" stroke="#1ED760" stroke-width="0.5"/>
<line x1="-47" y1="673.75" x2="1487" y2="673.75" stroke="#1ED760" stroke-width="0.5"/>
<line x1="-47" y1="648.75" x2="1487" y2="648.75" stroke="#1ED760" stroke-width="0.5"/>
<line x1="-47" y1="623.75" x2="1487" y2="623.75" stroke="#1ED760" stroke-width="0.5"/>
<line x1="-47" y1="598.75" x2="1487" y2="598.75" stroke="#1ED760" stroke-width="0.5"/>
<line x1="-47" y1="573.75" x2="1487" y2="573.75" stroke="#1ED760" stroke-width="0.5"/>
<line x1="-47" y1="548.75" x2="1487" y2="548.75" stroke="#1ED760" stroke-width="0.5"/>
<line x1="-47" y1="523.75" x2="1487" y2="523.75" stroke="#1ED760" stroke-width="0.5"/>
<line x1="-47" y1="498.75" x2="1487" y2="498.75" stroke="#1ED760" stroke-width="0.5"/>
<line x1="-47" y1="473.75" x2="1487" y2="473.75" stroke="#1ED760" stroke-width="0.5"/>
<line x1="-47" y1="448.75" x2="1487" y2="448.75" stroke="#1ED760" stroke-width="0.5"/>
<line x1="-47" y1="423.75" x2="1487" y2="423.75" stroke="#1ED760" stroke-width="0.5"/>
<line x1="-47" y1="398.75" x2="1487" y2="398.75" stroke="#1ED760" stroke-width="0.5"/>
<line x1="-47" y1="373.75" x2="1487" y2="373.75" stroke="#1ED760" stroke-width="0.5"/>
<line x1="-47" y1="348.75" x2="1487" y2="348.75" stroke="#1ED760" stroke-width="0.5"/>
<line x1="-47" y1="323.75" x2="1487" y2="323.75" stroke="#1ED760" stroke-width="0.5"/>
<line x1="-47" y1="298.75" x2="1487" y2="298.75" stroke="#1ED760" stroke-width="0.5"/>
<line x1="-47" y1="273.75" x2="1487" y2="273.75" stroke="#1ED760" stroke-width="0.5"/>
<line x1="-47" y1="248.75" x2="1487" y2="248.75" stroke="#1ED760" stroke-width="0.5"/>
<line x1="-47" y1="223.75" x2="1487" y2="223.75" stroke="#1ED760" stroke-width="0.5"/>
<line x1="-47" y1="198.75" x2="1487" y2="198.75" stroke="#1ED760" stroke-width="0.5"/>
<line x1="-47" y1="173.75" x2="1487" y2="173.75" stroke="#1ED760" stroke-width="0.5"/>
<line x1="-47" y1="148.75" x2="1487" y2="148.75" stroke="#1ED760" stroke-width="0.5"/>
<line x1="-47" y1="123.75" x2="1487" y2="123.75" stroke="#1ED760" stroke-width="0.5"/>
<line x1="-47" y1="98.75" x2="1487" y2="98.7501" stroke="#1ED760" stroke-width="0.5"/>
<line x1="-47" y1="73.75" x2="1487" y2="73.7501" stroke="#1ED760" stroke-width="0.5"/>
<line x1="-47" y1="48.75" x2="1487" y2="48.7501" stroke="#1ED760" stroke-width="0.5"/>
<line x1="-47" y1="23.75" x2="1487" y2="23.7501" stroke="#1ED760" stroke-width="0.5"/>
<rect width="1440" height="1024" fill="url(#paint0_linear_48_706)"/>
<rect x="35.2753" y="152.753" width="35.275" height="199.84" transform="rotate(-180 35.2753 152.753)" fill="url(#paint1_linear_48_706)"/>
<rect x="72.1277" y="152.753" width="36.8526" height="199.84" transform="rotate(-180 72.1277 152.753)" fill="url(#paint2_linear_48_706)"/>
<rect x="35.275" y="199.091" width="35.275" height="199.84" transform="rotate(-180 35.275 199.091)" fill="url(#paint3_linear_48_706)"/>
<rect x="108.98" y="110.145" width="36.8526" height="199.84" transform="rotate(-180 108.98 110.145)" fill="url(#paint4_linear_48_706)"/>
<rect x="145.833" y="67.606" width="36.8526" height="199.84" transform="rotate(-180 145.833 67.606)" fill="url(#paint5_linear_48_706)"/>
<rect x="182.685" y="35.3792" width="36.8526" height="199.84" transform="rotate(-180 182.685 35.3792)" fill="url(#paint6_linear_48_706)"/>
<rect width="35.275" height="199.84" transform="matrix(-1 0 0 1 35.2753 870.339)" fill="url(#paint7_linear_48_706)"/>
<rect width="36.8526" height="199.84" transform="matrix(-1 0 0 1 72.1277 870.339)" fill="url(#paint8_linear_48_706)"/>
<rect width="35.275" height="199.84" transform="matrix(-1 0 0 1 35.275 824)" fill="url(#paint9_linear_48_706)"/>
<rect width="36.8526" height="199.84" transform="matrix(-1 0 0 1 108.98 912.946)" fill="url(#paint10_linear_48_706)"/>
<rect width="36.8526" height="199.84" transform="matrix(-1 0 0 1 145.833 955.485)" fill="url(#paint11_linear_48_706)"/>
<rect width="36.8526" height="199.84" transform="matrix(-1 0 0 1 182.685 987.712)" fill="url(#paint12_linear_48_706)"/>
<rect width="35.275" height="199.84" transform="matrix(1 0 0 -1 1404.72 152.753)" fill="url(#paint13_linear_48_706)"/>
<rect width="36.8526" height="199.84" transform="matrix(1 0 0 -1 1367.87 152.753)" fill="url(#paint14_linear_48_706)"/>
<rect width="35.275" height="199.84" transform="matrix(1 0 0 -1 1404.72 199.091)" fill="url(#paint15_linear_48_706)"/>
<rect width="36.8526" height="199.84" transform="matrix(1 0 0 -1 1331.02 110.145)" fill="url(#paint16_linear_48_706)"/>
<rect width="36.8526" height="199.84" transform="matrix(1 0 0 -1 1294.17 67.606)" fill="url(#paint17_linear_48_706)"/>
<rect width="36.8526" height="199.84" transform="matrix(1 0 0 -1 1257.31 35.3792)" fill="url(#paint18_linear_48_706)"/>
<rect x="1404.72" y="870.339" width="35.275" height="199.84" fill="url(#paint19_linear_48_706)"/>
<rect x="1367.87" y="870.339" width="36.8526" height="199.84" fill="url(#paint20_linear_48_706)"/>
<rect x="1404.72" y="824" width="35.275" height="199.84" fill="url(#paint21_linear_48_706)"/>
<rect x="1331.02" y="912.946" width="36.8526" height="199.84" fill="url(#paint22_linear_48_706)"/>
<rect x="1294.17" y="955.485" width="36.8526" height="199.84" fill="url(#paint23_linear_48_706)"/>
<rect x="1257.31" y="987.712" width="36.8526" height="199.84" fill="url(#paint24_linear_48_706)"/>
<path fill-rule="evenodd" clip-rule="evenodd" d="M70.4526 644.987C91.9578 633.302 108.357 624.234 120.663 617.305C106.761 624.683 89.4737 634.146 70.4526 644.987ZM185.937 711.53C164.456 707.119 116.08 699.516 54.2737 692.898C125.474 704.316 166.96 709.769 185.937 711.53ZM-66.1471 812.277C-65.1682 814.348 -64.0499 814.292 -63.6228 814.267C-56.9609 813.908 -38.5242 792.015 -11.6713 712.236C-11.3596 711.317 -10.3294 710.811 -9.36692 711.105C-8.5878 711.343 -8.09282 712.031 -8.09282 712.771C-8.09282 712.948 -8.12215 713.128 -8.18081 713.307C-35.0668 793.191 -34.1868 808.186 -33.5104 810.721C-30.5131 808.58 -22.1518 794.327 -13.8033 769.602C-4.40073 741.759 0.053998 714.837 -1.58123 695.739C-1.5849 695.69 -1.58673 695.643 -1.58673 695.594C-1.58673 694.692 -0.860786 693.927 0.0979865 693.852C1.09892 693.768 1.9917 694.491 2.0742 695.454C5.99728 741.293 48.4949 800.321 55.9542 802.593C56.3117 800.543 55.6701 786.897 12.3219 711.418C12.1679 711.15 12.0946 710.86 12.0964 710.573C12.0982 709.956 12.4429 709.359 13.0497 709.041C13.9369 708.575 15.0534 708.887 15.5373 709.734C34.601 742.93 58.3558 767.734 84.2316 781.463C105.017 792.493 126.99 796.076 144.53 791.296C160.73 786.879 170.334 776.151 169.595 763.297C168.235 739.564 132.41 708.614 35.9502 692.924C35.0556 692.779 34.4231 692.039 34.425 691.2C34.425 691.102 34.4341 691.004 34.4525 690.906C34.4891 690.691 34.5661 690.493 34.6743 690.316C31.4423 689.998 28.1884 689.682 24.8977 689.373C23.95 689.282 23.2442 688.52 23.2442 687.631C23.2442 687.573 23.2478 687.515 23.2533 687.458C23.3523 686.495 24.28 685.8 25.2589 685.887C73.8904 690.489 108.676 682.57 129.292 675.12C156.891 665.144 171.253 651.867 175.491 642.766C177.203 639.094 178.329 633.923 173.979 630.144C164.259 621.698 123.244 620.61 31.1838 670.096C30.3057 670.569 29.1838 670.273 28.687 669.429C28.6742 669.408 28.6632 669.387 28.6503 669.365C24.8042 671.686 20.9343 674.038 17.0571 676.417C16.2028 676.941 15.0699 676.703 14.5236 675.89C14.3274 675.598 14.2321 675.271 14.2321 674.949C14.2321 674.371 14.5309 673.807 15.0754 673.473C73.0765 637.893 93.3116 600.135 90.8349 588.726C90.4059 586.755 89.361 585.664 87.6377 585.394C79.7109 584.159 54.0459 599.274 13.6436 665.311C13.1377 666.147 12.0157 666.429 11.1358 665.939C10.5528 665.613 10.2283 665.027 10.2283 664.425C10.2283 664.125 10.309 663.823 10.4795 663.546C46.0824 605.35 41.0649 558.878 21.3358 540.327C13.3943 532.861 3.92757 531.14 -3.98826 535.713C-20.4817 545.242 -31.3435 582.753 -7.66935 657.111C-7.61618 657.283 -7.59052 657.454 -7.59052 657.622C-7.59052 658.373 -8.09832 659.067 -8.89027 659.296C-9.86371 659.585 -10.883 659.054 -11.1781 658.13C-38.3831 572.679 -48.5372 562.931 -50.3081 561.837C-54.0259 568.338 -39.4115 634.957 -6.8499 674.767C-6.58775 675.085 -6.46309 675.463 -6.46126 675.838C-6.45943 676.36 -6.69958 676.878 -7.16522 677.224C-7.96817 677.819 -9.11758 677.683 -9.73904 676.923C-42.8909 636.393 -131.036 597.959 -140.413 600.438C-139.452 602.717 -129.591 615.244 -32.5186 666.399C-31.9136 666.72 -31.5727 667.317 -31.5727 667.935C-31.5727 668.22 -31.646 668.51 -31.8 668.778C-32.2894 669.622 -33.4022 669.934 -34.2913 669.464C-124.482 621.936 -183.995 635.876 -207.558 662.256C-221.571 677.947 -222.948 698.326 -210.98 712.964C-191.031 737.362 -135.21 747.068 -38.3647 701.132C-37.4518 700.702 -36.3555 701.057 -35.9064 701.922C-35.7762 702.172 -35.7157 702.438 -35.7157 702.699C-35.7157 703.343 -36.0879 703.963 -36.7313 704.267C-158.813 762.173 -165.573 775.65 -165.927 777.183C-158.58 781.395 -67.9492 747.683 -14.2433 695.835C-13.532 695.147 -12.3716 695.14 -11.6511 695.821C-11.2863 696.164 -11.1066 696.616 -11.1066 697.068C-11.1066 697.511 -11.2826 697.955 -11.6364 698.296C-57.9361 742.995 -72.2261 799.406 -66.1471 812.277ZM-69.6813 813.947C-75.7907 801.011 -65.2093 757.359 -33.3315 716.983C-85.2957 757.018 -155.953 784.885 -167.42 780.674C-168.877 780.14 -169.754 779.067 -169.82 777.726C-170.247 769.096 -127.579 745.439 -85.2517 724.144C-112.711 733.247 -135.892 737.068 -154.943 737.07C-184.175 737.071 -203.687 728.079 -214.087 715.364C-227.158 699.381 -225.743 677.229 -210.563 660.238C-190.068 637.297 -143.725 623.225 -75.0353 647.827C-112.573 626.97 -145.183 606.786 -144.361 600.005C-144.29 599.414 -143.901 597.979 -141.851 597.427C-130.386 594.349 -61.7733 624.844 -22.4054 659.391C-46.3239 620.157 -58.3647 568.476 -53.5719 560.238C-52.8531 558.998 -51.687 558.372 -50.3577 558.496C-43.8798 559.154 -32.6714 585.614 -22.4384 614.056C-30.4693 566.804 -20.5334 541.346 -6.06863 532.992C3.24207 527.619 14.6577 529.576 23.7318 538.106C34.3737 548.109 40.3748 565.275 40.1988 585.206C40.0613 600.877 36.1834 617.973 28.8291 635.695C50.8847 604.685 74.4456 580.078 88.0669 582.208C91.3196 582.715 93.5199 584.871 94.2606 588.281C96.7707 599.832 82.7845 625.345 51.3339 651.93C76.1654 637.433 96.8973 626.015 109.129 619.401C152.268 596.071 153.99 596.962 154.916 597.445C155.503 597.748 155.913 598.395 155.919 599.032C155.928 600.331 155.937 601.269 126.932 617.757C116.452 623.715 103.461 630.947 88.3493 639.245C103.669 633.1 117.635 628.544 129.877 625.728C152.325 620.568 168.81 621.307 176.299 627.812C180.956 631.859 181.806 637.766 178.691 644.446C169.859 663.402 130.227 687.247 68.2042 690.599C105.766 694.822 133.984 698.901 149.569 701.315C199.359 709.026 200.452 711.478 200.861 712.402C201.123 712.99 201.005 713.825 200.591 714.326C199.724 715.372 198.638 716.673 159.767 711.725C141.535 709.406 118.372 706.098 91.338 701.961C111.032 707.834 127.576 714.807 140.803 722.828C160.833 734.973 172.305 749.361 173.108 763.343C173.944 777.915 163.321 790.006 145.381 794.894C114.945 803.188 71.7063 789.647 34.4507 744.231C50.2723 773.722 62.6871 800.496 58.5543 805.32C58.1491 805.791 56.983 806.82 54.8909 806.197C45.0064 803.258 12.9213 756.113 1.80273 715.134C-1.61131 757.979 -23.6962 810.007 -32.4312 814.288C-33.6945 814.907 -34.9725 814.815 -35.9388 814.032C-39.6517 811.025 -36.1331 792.818 -29.7322 769.716C-43.1702 800.211 -55.1139 817.534 -63.6087 817.991C-63.7132 817.997 -63.8214 818 -63.9387 818C-65.5045 818 -68.0495 817.401 -69.6813 813.947Z" fill="#509BF5"/>
<g clip-path="url(#clip1_48_706)">
<path d="M1163.05 134.073C1174.44 142.965 1185.64 151.345 1199.2 156.64" stroke="#FFCC00" stroke-width="5" stroke-linecap="round" stroke-linejoin="round"/>
<path d="M1163.22 133.732C1177.35 131.256 1191.28 127.949 1205.13 124.236C1208.53 123.321 1212.67 121.396 1216.23 121.184" stroke="#FFCC00" stroke-width="5" stroke-linecap="round" stroke-linejoin="round"/>
<path d="M1162.16 117.463C1176.93 109.444 1192.29 102.304 1206.41 93.1556" stroke="#FFCC00" stroke-width="5" stroke-linecap="round" stroke-linejoin="round"/>
<path d="M1162.19 115.49C1164.76 105.673 1166.41 95.868 1167.93 85.8459C1168.46 82.3906 1168.57 78.7189 1169.48 75.3346" stroke="#FFCC00" stroke-width="5" stroke-linecap="round" stroke-linejoin="round"/>
<path d="M1181.73 168.104C1172.3 164.873 1164.32 157.705 1156.9 151.266C1155.69 150.217 1154.31 149.953 1153.08 149.033" stroke="#FFCC00" stroke-width="5" stroke-linecap="round" stroke-linejoin="round"/>
<path d="M1153.77 146.943C1149.68 160.281 1141.9 171.991 1137.56 185.203" stroke="#FFCC00" stroke-width="5" stroke-linecap="round" stroke-linejoin="round"/>
<path d="M1155.29 152.565C1154.84 157.357 1155.99 162.454 1156.67 167.155C1159.03 183.714 1161.99 200.165 1164.87 216.64C1166.86 227.984 1168.8 239.327 1170.25 250.753C1170.45 252.332 1170.65 253.801 1171.03 255.325" stroke="#FFCC00" stroke-width="5" stroke-linecap="round" stroke-linejoin="round"/>
<path d="M1162.53 115.247C1169.17 106.332 1176.38 98.0619 1183.96 89.9296C1197.45 75.459 1211.06 61.0994 1224.58 46.6579C1227.86 43.1599 1231.23 39.7496 1234.5 36.2498C1235.15 35.5514 1235.76 34.9142 1236.21 34.092" stroke="#FFCC00" stroke-width="5" stroke-linecap="round" stroke-linejoin="round"/>
<path d="M1167.4 135.003C1182.44 139.034 1197.6 142.069 1212.89 145.012C1233.06 148.891 1253.07 153.472 1273.2 157.485C1279.18 158.677 1285.62 159.22 1291.51 160.798" stroke="#FFCC00" stroke-width="5" stroke-linecap="round" stroke-linejoin="round"/>
</g>
<path d="M1254.45 794.726C1255.6 794.867 1256.42 795.899 1256.3 797.043C1251.58 839.971 1251.24 862.521 1262.05 874.553C1271.08 884.592 1288.38 888.325 1325.89 888.325C1327.05 888.325 1328 889.269 1328 890.432C1328 891.596 1327.05 892.538 1325.89 892.538C1290.09 892.538 1267.61 893.332 1257.34 904.349C1247.82 914.567 1247.23 934.473 1249.73 969.751L1249.89 971.98C1249.89 972.034 1249.9 972.085 1249.9 972.136C1249.9 973.231 1249.05 974.155 1247.94 974.235C1247.89 974.24 1247.83 974.242 1247.78 974.242C1246.69 974.242 1245.76 973.395 1245.68 972.289C1245.63 971.565 1245.57 970.847 1245.52 970.135L1245.03 963.314C1240.16 895.198 1239.97 892.538 1169.68 892.538C1168.51 892.538 1167.57 891.596 1167.57 890.432C1167.57 889.269 1168.51 888.325 1169.68 888.325C1239.52 888.325 1241.22 875.937 1250.64 807.177C1251.11 803.762 1251.59 800.213 1252.1 796.524C1252.26 795.385 1253.3 794.564 1254.45 794.726ZM1248.98 845.053C1243.38 871.962 1234.69 884.719 1208.83 889.766C1233.29 892.609 1241.4 900.757 1245.34 923.187C1246.7 913.644 1249.48 906.602 1254.25 901.481C1260.57 894.697 1269.9 891.371 1284.27 889.764C1273.04 887.565 1264.66 883.76 1258.91 877.365C1252.35 870.071 1249.45 860.053 1248.98 845.053ZM1181.93 775.022C1183.08 775.163 1183.9 776.195 1183.78 777.339C1181.49 798.102 1181.3 808.967 1186.34 814.573C1190.54 819.244 1198.83 820.98 1216.92 820.98C1218.09 820.98 1219.04 821.922 1219.04 823.087C1219.04 824.252 1218.09 825.193 1216.92 825.193C1199.61 825.193 1188.76 825.563 1184.01 830.65C1179.6 835.382 1179.34 844.939 1180.55 861.939L1180.63 863.055C1180.63 863.107 1180.63 863.16 1180.63 863.211C1180.63 864.307 1179.79 865.23 1178.67 865.31C1178.62 865.314 1178.57 865.315 1178.52 865.315C1177.42 865.315 1176.49 864.471 1176.41 863.362C1176.38 862.985 1176.36 862.613 1176.33 862.242L1176.09 858.955C1173.67 825.194 1173.67 825.193 1140.11 825.193C1138.95 825.193 1138 824.252 1138 823.087C1138 821.922 1138.95 820.98 1140.11 820.98C1173.52 820.98 1174.23 815.795 1178.85 782.057L1179.58 776.821C1179.74 775.679 1180.76 774.853 1181.93 775.022ZM1178.62 807.073C1176.12 815.043 1172.23 819.85 1164.44 822.492C1171.66 824.138 1175.21 827.516 1177.24 834.342C1178.06 831.702 1179.25 829.557 1180.91 827.783C1183.39 825.124 1186.7 823.494 1191.3 822.497C1187.94 821.326 1185.26 819.68 1183.19 817.386C1180.81 814.735 1179.35 811.432 1178.62 807.073Z" fill="#CB30E0"/>
</g>
<defs>
<linearGradient id="paint0_linear_48_706" x1="720" y1="0" x2="720" y2="1024" gradientUnits="userSpaceOnUse">
<stop/>
<stop offset="0.509615" stop-opacity="0"/>
<stop offset="0.846154"/>
</linearGradient>
<linearGradient id="paint1_linear_48_706" x1="52.9127" y1="152.753" x2="52.9127" y2="352.593" gradientUnits="userSpaceOnUse">
<stop stop-color="#1ED760"/>
<stop offset="0.192374" stop-color="#19AF4E"/>
<stop offset="0.700173" stop-color="#107634"/>
<stop offset="1" stop-color="#000500"/>
</linearGradient>
<linearGradient id="paint2_linear_48_706" x1="90.554" y1="152.753" x2="90.554" y2="352.593" gradientUnits="userSpaceOnUse">
<stop stop-color="#1ED760"/>
<stop offset="0.192374" stop-color="#19AF4E"/>
<stop offset="0.700173" stop-color="#107634"/>
<stop offset="1" stop-color="#000500"/>
</linearGradient>
<linearGradient id="paint3_linear_48_706" x1="52.9125" y1="199.091" x2="52.9125" y2="398.931" gradientUnits="userSpaceOnUse">
<stop stop-color="#1ED760"/>
<stop offset="0.192374" stop-color="#19AF4E"/>
<stop offset="0.700173" stop-color="#107634"/>
<stop offset="1" stop-color="#000500"/>
</linearGradient>
<linearGradient id="paint4_linear_48_706" x1="127.407" y1="110.145" x2="127.407" y2="309.985" gradientUnits="userSpaceOnUse">
<stop stop-color="#1ED760"/>
<stop offset="0.192374" stop-color="#19AF4E"/>
<stop offset="0.700173" stop-color="#107634"/>
<stop offset="1" stop-color="#000500"/>
</linearGradient>
<linearGradient id="paint5_linear_48_706" x1="164.259" y1="67.606" x2="164.259" y2="267.446" gradientUnits="userSpaceOnUse">
<stop stop-color="#1ED760"/>
<stop offset="0.192374" stop-color="#19AF4E"/>
<stop offset="0.700173" stop-color="#107634"/>
<stop offset="1" stop-color="#000500"/>
</linearGradient>
<linearGradient id="paint6_linear_48_706" x1="201.111" y1="35.3792" x2="201.111" y2="235.219" gradientUnits="userSpaceOnUse">
<stop stop-color="#1ED760"/>
<stop offset="0.192374" stop-color="#19AF4E"/>
<stop offset="0.700173" stop-color="#107634"/>
<stop offset="1" stop-color="#000500"/>
</linearGradient>
<linearGradient id="paint7_linear_48_706" x1="17.6375" y1="0" x2="17.6375" y2="199.84" gradientUnits="userSpaceOnUse">
<stop stop-color="#1ED760"/>
<stop offset="0.192374" stop-color="#19AF4E"/>
<stop offset="0.700173" stop-color="#107634"/>
<stop offset="1" stop-color="#000500"/>
</linearGradient>
<linearGradient id="paint8_linear_48_706" x1="18.4263" y1="0" x2="18.4263" y2="199.84" gradientUnits="userSpaceOnUse">
<stop stop-color="#1ED760"/>
<stop offset="0.192374" stop-color="#19AF4E"/>
<stop offset="0.700173" stop-color="#107634"/>
<stop offset="1" stop-color="#000500"/>
</linearGradient>
<linearGradient id="paint9_linear_48_706" x1="17.6375" y1="0" x2="17.6375" y2="199.84" gradientUnits="userSpaceOnUse">
<stop stop-color="#1ED760"/>
<stop offset="0.192374" stop-color="#19AF4E"/>
<stop offset="0.700173" stop-color="#107634"/>
<stop offset="1" stop-color="#000500"/>
</linearGradient>
<linearGradient id="paint10_linear_48_706" x1="18.4263" y1="0" x2="18.4263" y2="199.84" gradientUnits="userSpaceOnUse">
<stop stop-color="#1ED760"/>
<stop offset="0.192374" stop-color="#19AF4E"/>
<stop offset="0.700173" stop-color="#107634"/>
<stop offset="1" stop-color="#000500"/>
</linearGradient>
<linearGradient id="paint11_linear_48_706" x1="18.4263" y1="0" x2="18.4263" y2="199.84" gradientUnits="userSpaceOnUse">
<stop stop-color="#1ED760"/>
<stop offset="0.192374" stop-color="#19AF4E"/>
<stop offset="0.700173" stop-color="#107634"/>
<stop offset="1" stop-color="#000500"/>
</linearGradient>
<linearGradient id="paint12_linear_48_706" x1="18.4263" y1="0" x2="18.4263" y2="199.84" gradientUnits="userSpaceOnUse">
<stop stop-color="#1ED760"/>
<stop offset="0.192374" stop-color="#19AF4E"/>
<stop offset="0.700173" stop-color="#107634"/>
<stop offset="1" stop-color="#000500"/>
</linearGradient>
<linearGradient id="paint13_linear_48_706" x1="17.6375" y1="0" x2="17.6375" y2="199.84" gradientUnits="userSpaceOnUse">
<stop stop-color="#1ED760"/>
<stop offset="0.192374" stop-color="#19AF4E"/>
<stop offset="0.700173" stop-color="#107634"/>
<stop offset="1" stop-color="#000500"/>
</linearGradient>
<linearGradient id="paint14_linear_48_706" x1="18.4263" y1="0" x2="18.4263" y2="199.84" gradientUnits="userSpaceOnUse">
<stop stop-color="#1ED760"/>
<stop offset="0.192374" stop-color="#19AF4E"/>
<stop offset="0.700173" stop-color="#107634"/>
<stop offset="1" stop-color="#000500"/>
</linearGradient>
<linearGradient id="paint15_linear_48_706" x1="17.6375" y1="0" x2="17.6375" y2="199.84" gradientUnits="userSpaceOnUse">
<stop stop-color="#1ED760"/>
<stop offset="0.192374" stop-color="#19AF4E"/>
<stop offset="0.700173" stop-color="#107634"/>
<stop offset="1" stop-color="#000500"/>
</linearGradient>
<linearGradient id="paint16_linear_48_706" x1="18.4263" y1="0" x2="18.4263" y2="199.84" gradientUnits="userSpaceOnUse">
<stop stop-color="#1ED760"/>
<stop offset="0.192374" stop-color="#19AF4E"/>
<stop offset="0.700173" stop-color="#107634"/>
<stop offset="1" stop-color="#000500"/>
</linearGradient>
<linearGradient id="paint17_linear_48_706" x1="18.4263" y1="0" x2="18.4263" y2="199.84" gradientUnits="userSpaceOnUse">
<stop stop-color="#1ED760"/>
<stop offset="0.192374" stop-color="#19AF4E"/>
<stop offset="0.700173" stop-color="#107634"/>
<stop offset="1" stop-color="#000500"/>
</linearGradient>
<linearGradient id="paint18_linear_48_706" x1="18.4263" y1="0" x2="18.4263" y2="199.84" gradientUnits="userSpaceOnUse">
<stop stop-color="#1ED760"/>
<stop offset="0.192374" stop-color="#19AF4E"/>
<stop offset="0.700173" stop-color="#107634"/>
<stop offset="1" stop-color="#000500"/>
</linearGradient>
<linearGradient id="paint19_linear_48_706" x1="1422.36" y1="870.339" x2="1422.36" y2="1070.18" gradientUnits="userSpaceOnUse">
<stop stop-color="#1ED760"/>
<stop offset="0.192374" stop-color="#19AF4E"/>
<stop offset="0.700173" stop-color="#107634"/>
<stop offset="1" stop-color="#000500"/>
</linearGradient>
<linearGradient id="paint20_linear_48_706" x1="1386.3" y1="870.339" x2="1386.3" y2="1070.18" gradientUnits="userSpaceOnUse">
<stop stop-color="#1ED760"/>
<stop offset="0.192374" stop-color="#19AF4E"/>
<stop offset="0.700173" stop-color="#107634"/>
<stop offset="1" stop-color="#000500"/>
</linearGradient>
<linearGradient id="paint21_linear_48_706" x1="1422.36" y1="824" x2="1422.36" y2="1023.84" gradientUnits="userSpaceOnUse">
<stop stop-color="#1ED760"/>
<stop offset="0.192374" stop-color="#19AF4E"/>
<stop offset="0.700173" stop-color="#107634"/>
<stop offset="1" stop-color="#000500"/>
</linearGradient>
<linearGradient id="paint22_linear_48_706" x1="1349.45" y1="912.946" x2="1349.45" y2="1112.79" gradientUnits="userSpaceOnUse">
<stop stop-color="#1ED760"/>
<stop offset="0.192374" stop-color="#19AF4E"/>
<stop offset="0.700173" stop-color="#107634"/>
<stop offset="1" stop-color="#000500"/>
</linearGradient>
<linearGradient id="paint23_linear_48_706" x1="1312.59" y1="955.485" x2="1312.59" y2="1155.33" gradientUnits="userSpaceOnUse">
<stop stop-color="#1ED760"/>
<stop offset="0.192374" stop-color="#19AF4E"/>
<stop offset="0.700173" stop-color="#107634"/>
<stop offset="1" stop-color="#000500"/>
</linearGradient>
<linearGradient id="paint24_linear_48_706" x1="1275.74" y1="987.712" x2="1275.74" y2="1187.55" gradientUnits="userSpaceOnUse">
<stop stop-color="#1ED760"/>
<stop offset="0.192374" stop-color="#19AF4E"/>
<stop offset="0.700173" stop-color="#107634"/>
<stop offset="1" stop-color="#000500"/>
</linearGradient>
<clipPath id="clip0_48_706">
<rect width="1440" height="1024" fill="white"/>
</clipPath>
<clipPath id="clip1_48_706">
<rect width="241" height="151" fill="white" transform="translate(1116 246.788) rotate(-75)"/>
</clipPath>
</defs>
</svg>
